<?xml version="1.0" encoding="utf-8"?>
<!-- Generator: Adobe Illustrator 25.0.1, SVG Export Plug-In . SVG Version: 6.00 Build 0)  -->
<svg version="1.1" id="katman_1" xmlns="http://www.w3.org/2000/svg" xmlns:xlink="http://www.w3.org/1999/xlink" x="0px" y="0px"
	 viewBox="0 0 1200 800" style="enable-background:new 0 0 1200 800;" xml:space="preserve">
<style type="text/css">
	.st0{clip-path:url(#SVGID_2_);}
	.st1{fill:#365181;}
	.st2{clip-path:url(#SVGID_4_);}
</style>
<g>
	<defs>
		<rect id="SVGID_1_" x="-2113.8" y="83.8" width="3381" height="4405.5"/>
	</defs>
	<clipPath id="SVGID_2_">
		<use xlink:href="#SVGID_1_"  style="overflow:visible;"/>
	</clipPath>
	<g transform="matrix(.35278 0 0 -.35278 -139.5912 260.35)" class="st0">
		<path class="st1" d="M2087.1-402.3l-33.7-71.5h-30.5l-3.2,71.5h-1.2l-14.8-71.5h-32l22.2,107h52.7l0.8-61.5h1.3l26.1,61.5h54.2
			l-22.2-107H2073l15.4,71.5H2087.1z M2203.8-366.8h48.7l7.5-106.9h-35l-0.5,18.9h-31.3l-8.5-18.9h-32.8L2203.8-366.8z M2225-432.5
			l-2,40.5h-1.2l-19.7-40.5H2225z M2472.6-392.1h-23.4l5.2,25.2h81.8l-5.2-25.2h-23.4l-17-81.7h-35L2472.6-392.1z M2675.6-366.8
			h47.4l10.4-63.8h1l13.3,63.8h33.2l-22.2-106.9h-47.4l-8.9,65.4h-1.2l-13.6-65.4h-34.3L2675.6-366.8z"/>
		<g>
			<defs>
				<rect id="SVGID_3_" x="1635" y="-507" width="923.1" height="222.5"/>
			</defs>
			<clipPath id="SVGID_4_">
				<use xlink:href="#SVGID_3_"  style="overflow:visible;"/>
			</clipPath>
			<g class="st2">
				<path class="st1" d="M2329.7-366.8h51.6c25.2,0,34.1-14,34.1-27.3c0-20.2-17-26-25.4-27.6v-1.5c10.2-1.3,14.8-8.6,14.8-17.5
					c0-7-1.6-14.2-1.6-23.5c0-3.7,0.7-8.2,0.9-9.5h-37.4c-0.1,0.6-0.5,4.1-0.5,6.2c0,9,2.5,15.3,2.5,25.1c0,4.5-1.8,8.8-8.9,8.8h-9
					l-8.3-40.1h-35.1L2329.7-366.8z M2364.4-411.4c9.9,0,14.1,4.9,14.1,11.4c0,5.3-3,7.9-10.2,7.9h-8.8l-4-19.3H2364.4z
					 M2580.5-366.8h35l-22.2-106.9h-35L2580.5-366.8z M810.5-366.8h34.9l-17-81.7h34.2l-5-25.2h-69.5L810.5-366.8z M1215-366.8h34.9
					l-9.6-46h0.9l31,46h37.2l-38.6-50.5l19.3-56.5H1253l-14.5,47.5h-0.9l-9.9-47.5h-35L1215-366.8z M1396.3-433.7h-20.8l-8.3-40.1
					h-35l22.2,107h35l-8.3-40.1h20.9l8.4,40.1h34.9l-22.2-107h-35L1396.3-433.7z M1642.2-366.8h73.5l-5.2-25.2h-38.5l-3.3-15.7h34.9
					l-5.3-25.3h-34.9l-3.2-15.5h40.3l-5.3-25.2h-75.2L1642.2-366.8z M1508.2-366.8h73.5l-5.2-25.2h-38.5l-3.3-15.7h34.9l-5.3-25.3
					h-34.9l-3.2-15.5h40.3l-5.3-25.2h-75.2L1508.2-366.8z M969.2-365.4c26,0,40-14.7,40-37.8c0-28.1-14.5-72.1-60.3-72.1
					c-25.3,0-40.1,14-40.1,37.6C908.8-406.6,924.9-365.4,969.2-365.4 M952.6-448.5c15.3,0,21.9,38.2,21.9,47c0,4.8-2.2,9.4-9.1,9.4
					c-15.8,0-21.9-38.9-21.9-47C943.5-446.7,948.4-448.5,952.6-448.5 M1782.3-366.8h39.6c33.8,0,47.7-18.9,47.7-39.8
					c0-39.7-25-67.1-67-67.1H1760L1782.3-366.8z M1800.2-448.5h10.2c14.2,0,24,18.7,24,41.8c0,8.3-3.8,14.7-16.2,14.7h-6.2
					L1800.2-448.5z M1142.6-433.7c-5.8-28.8-27-41.6-51.5-41.6c-25.9,0-40,14.6-40,37.6c0,26.9,13.7,72.3,60.4,72.3
					c21.4,0,38.5-7.9,37.9-30.7c-0.1-3.3-0.8-8.7-1.1-10.9h-32.6c0.1,0.7,0.7,3.6,0.7,6.8c0,6-4.4,8.1-8.6,8.1
					c-16,0-22.1-38.4-22.1-47.1c0-6.5,3.7-9.3,8.9-9.3c5.3,0,10.3,4.1,14.6,14.9L1142.6-433.7z M2892.1-441.7
					C2889.1-444.8,2889.1-444.7,2892.1-441.7"/>
				<path class="st1" d="M3159.1-326.3l108.2-2.7l-128.6-72.7C3145.8-375.9,3152-352.3,3159.1-326.3 M3158.5-199.1l-18.7-98.1h-89
					L3158.5-199.1z M3404.8-297.2h-237.5c31.2,117.3,59.4,216.8,59.4,216.8s-106.9-114.3-201.9-216.8l-941.5-2c0,0,0.4,0,1,0l-1,0
					l918.1-23.2c-70.6-75.1-107.8-117.9-109.3-119.4l0.4,0.3c3,2.7,130.1,118.6,130.1,118.6l111.7-2.8l-16.8-88.1L2593.9-710
					c-1.3-0.7-2-1.1-2.1-1.2c0,0,415.8,218.5,520.7,271.5c0,0-36.9-192.3-36.9-193.1c0,0,0,0.2,0.1,0.4l-0.1-0.4l0.5,1.9
					c3.4,12.5,25.5,88.1,55.5,200C3268.3-361.1,3404.8-297.2,3404.8-297.2"/>
			</g>
		</g>
	</g>
</g>
</svg>
